<svg xmlns="http://www.w3.org/2000/svg" fill="none" viewBox="0 0 36 36" height="36" width="36">
<path fill="black" d="M32.2484 25.4779L25.1074 19.5832C25.9158 17.9663 26.3874 16.1137 26.3874 14.1937C26.3874 7.45684 20.9305 2 14.1937 2C7.45684 2 2 7.45684 2 14.1937C2 20.9305 7.45684 26.3874 14.1937 26.3874C16.1474 26.3874 17.9663 25.9158 19.5832 25.1074L25.4442 32.2484C26.32 33.2926 27.5663 33.9326 28.9137 34C28.9811 34 29.0821 34 29.1495 34C30.4295 34 31.6421 33.4947 32.5516 32.5853C33.4947 31.6421 34.0337 30.2947 33.9663 28.9474C33.9326 27.6 33.2926 26.32 32.2484 25.4779ZM3.95368 14.1937C3.95368 8.56842 8.56842 3.98737 14.1937 3.98737C19.8189 3.98737 24.4337 8.56842 24.4337 14.1937C24.4337 19.8189 19.8189 24.4337 14.1937 24.4337C8.56842 24.4337 3.95368 19.8189 3.95368 14.1937ZM31.2042 31.2042C30.6316 31.7768 29.8905 32.08 29.0484 32.0463C28.24 32.0126 27.4989 31.6421 26.9937 31.0021L21.3011 24.0968C22.3789 23.3221 23.3221 22.3789 24.0968 21.3011L31.0021 26.9937C31.6421 27.4989 32.0126 28.24 32.0463 29.0484C32.08 29.8568 31.7768 30.6316 31.2042 31.2042Z"></path>
<path fill="black" d="M21.9074 14.1932C21.9074 9.94897 18.4379 6.47949 14.1937 6.47949C13.6548 6.47949 13.2169 6.91739 13.2169 7.45633C13.2169 7.99528 13.6548 8.43318 14.1937 8.43318C17.36 8.43318 19.9537 11.0269 19.9537 14.1932C19.9537 14.7321 20.3916 15.17 20.9305 15.17C21.4695 15.17 21.9074 14.7321 21.9074 14.1932Z"></path>
</svg>
